<?xml version="1.0" encoding="UTF-8"?>
<!DOCTYPE svg PUBLIC "-//W3C//DTD SVG 1.1//EN" "http://www.w3.org/Graphics/SVG/1.1/DTD/svg11.dtd">
<svg xmlns="http://www.w3.org/2000/svg" version="1.1" width="1200px" height="1072px" style="shape-rendering:geometricPrecision; text-rendering:geometricPrecision; image-rendering:optimizeQuality; fill-rule:evenodd; clip-rule:evenodd" xmlns:xlink="http://www.w3.org/1999/xlink">
<g><path style="opacity:0.997" fill="#013088" d="M 6.5,8.5 C 215.334,7.1672 424.334,7.1672 633.5,8.5C 584.333,89.5 535.167,170.5 486,251.5C 485.333,439.833 485.333,628.167 486,816.5C 535.365,897.702 584.532,979.035 633.5,1060.5C 424.5,1061.83 215.5,1061.83 6.5,1060.5C 55.918,979.333 105.085,898 154,816.5C 154.667,628.167 154.667,439.833 154,251.5C 104.97,170.329 55.8034,89.3288 6.5,8.5 Z"/></g>
<g><path style="opacity:0.998" fill="#012f88" d="M 665.5,7.5 C 774.834,7.33333 884.167,7.5 993.5,8C 1082.39,19.8984 1143.56,67.3984 1177,150.5C 1184.74,171.844 1189.4,193.844 1191,216.5C 1191.67,429.833 1191.67,643.167 1191,856.5C 1185.94,922.132 1158.11,975.632 1107.5,1017C 1073.21,1042.8 1034.54,1057.46 991.5,1061C 882.832,1061.83 774.165,1061.67 665.5,1060.5C 714.468,979.035 763.635,897.702 813,816.5C 813.667,628.167 813.667,439.833 813,251.5C 763.56,170.277 714.393,88.9439 665.5,7.5 Z"/></g>
</svg>
